# xmcd
#
# Track frame offsets:
#	150
#	30106
#	52061
#	88116
#	108234
#	132868
#	143843
#
# Disc length: 2461 seconds
#
# Revision: 1
# Processed by: cddbd v1.5.2PL0 Copyright (c) Steve Scherf et al.
# Submitted via: audiograbber 1.83.01
#
DISCID=55099b07
DTITLE=Indian - Guiltless
DYEAR=2011
DGENRE=sludge
TTITLE0=No Grace
TTITLE1=The Fate Before Fate
TTITLE2=Guiltless
TTITLE3=Guilty
TTITLE4=The End Of Truth
TTITLE5=Supplicants
TTITLE6=Banality
EXTD=
EXTT0=
EXTT1=
EXTT2=
EXTT3=
EXTT4=
EXTT5=
EXTT6=
PLAYORDER=
